# This file uses centimeters as units for non-parametric coordinates.

mtllib MediumSmalRock.mtl
g default
v -1.246995 -0.343596 0.875013
v -1.034428 -0.085225 1.037094
v -0.540978 0.124191 1.265762
v 0.399242 0.120401 1.085792
v -1.679628 0.597181 1.107427
v -1.212778 0.670705 1.313269
v -0.642364 0.877421 1.429140
v 0.498035 1.038144 1.188790
v -1.453021 1.342429 1.128123
v -1.023790 1.499861 1.235474
v -0.637779 1.475839 1.246623
v 0.334655 1.260889 1.151320
v -1.010244 1.994075 1.036543
v -0.713716 2.166544 1.134538
v -0.377693 2.173065 1.130910
v 0.262597 1.498496 1.011995
v -0.944961 2.227196 0.779172
v -0.680983 2.591034 0.882804
v -0.341651 2.625616 0.900303
v 0.477888 1.555249 0.823355
v -0.925996 2.317411 0.368993
v -0.657504 2.735795 0.443264
v -0.285232 2.780070 0.456786
v 0.700589 1.549220 0.555770
v -0.957298 2.041685 -0.308161
v -0.562971 2.544800 -0.195219
v -0.062794 2.482955 -0.054032
v 0.923076 1.478285 0.275476
v -0.943380 1.454795 -0.935591
v -0.612525 1.561866 -0.886808
v 0.141292 1.373715 -0.411470
v 1.006202 1.315181 0.015031
v -0.979359 1.044670 -1.180585
v -0.626760 1.110915 -1.410509
v 0.151156 1.139487 -1.157963
v 1.149742 1.095834 -0.304290
v -0.943906 0.576804 -1.177442
v -0.548963 0.631877 -1.446270
v 0.252421 0.610435 -1.168129
v 1.226683 0.663201 -0.365296
v -0.833975 -0.217856 -0.677415
v -0.473031 -0.219394 -0.696035
v -0.015134 -0.227707 -0.498432
v 0.894674 0.015535 -0.267564
v -0.959720 -0.346007 -0.298589
v -0.588492 -0.456105 -0.309824
v -0.186289 -0.441159 -0.181836
v 1.005971 -0.010920 -0.004644
v -1.093427 -0.409890 0.129052
v -0.734254 -0.501117 0.137084
v -0.401686 -0.426009 0.267729
v 0.887738 -0.107239 0.338938
v -1.205600 -0.425386 0.539311
v -0.917527 -0.395308 0.612210
v -0.609928 -0.175147 0.779867
v 0.536496 -0.097217 0.745237
v 1.440338 0.746793 -0.050387
v 1.359763 0.796711 0.344978
v 0.987073 0.881057 0.774096
v 1.232845 1.204067 0.038427
v 1.080614 1.223670 0.459675
v 0.694984 1.281029 0.855145
v -1.218945 0.531084 -0.611405
v -1.709784 0.476369 0.126799
v -1.823379 0.532538 0.725149
v -1.212137 1.126720 -0.572452
v -1.499786 1.368071 0.164793
v -1.585439 1.391738 0.755535
vt 0.363070 0.396311
vt 0.379030 0.424399
vt 0.338033 0.493531
vt 0.321155 0.434277
vt 0.266450 0.517106
vt 0.254354 0.448969
vt 0.317306 0.298215
vt 0.377985 0.290185
vt 0.162467 0.486001
vt 0.144074 0.404065
vt 0.221098 0.294361
vt 0.312357 0.158287
vt 0.374614 0.168815
vt 0.101032 0.255055
vt 0.214911 0.149139
vt 0.282092 0.002281
vt 0.336764 0.015601
vt 0.094688 0.158050
vt 0.001992 0.241692
vt 0.041891 0.308484
vt 0.215278 0.004804
vt 0.145633 0.015208
vt 0.002504 0.165496
vt 0.083938 0.036079
vt 0.791894 0.661444
vt 0.804426 0.487125
vt 0.848005 0.486144
vt 0.864125 0.686598
vt 0.799249 0.442466
vt 0.863654 0.433125
vt 0.893653 0.474591
vt 0.947316 0.638210
vt 0.812448 0.377327
vt 0.882334 0.363591
vt 0.932258 0.429933
vt 0.817148 0.218007
vt 0.883317 0.216375
vt 0.946722 0.355462
vt 0.939273 0.232061
vt 0.998008 0.341848
vt 0.988073 0.412306
vt 0.982091 0.236370
vt 0.891609 0.045132
vt 0.946872 0.042282
vt 0.956061 0.114513
vt 0.895433 0.116715
vt 0.992287 0.197704
vt 0.910828 0.220698
vt 0.893198 0.956389
vt 0.815786 0.833624
vt 0.937358 0.832017
vt 0.978487 0.958708
vt 0.746326 0.692766
vt 0.798330 0.669389
vt 0.742516 0.655855
vt 0.703911 0.706304
vt 0.005024 0.771791
vt 0.001992 0.713008
vt 0.064890 0.731812
vt 0.066720 0.792270
vt 0.034173 0.638436
vt 0.085734 0.666310
vt 0.137673 0.755551
vt 0.136365 0.814045
vt 0.071772 0.490266
vt 0.114591 0.472140
vt 0.158949 0.701389
vt 0.215051 0.785398
vt 0.203179 0.832313
vt 0.170546 0.491395
vt 0.242355 0.735303
vt 0.284247 0.804437
vt 0.257851 0.839055
vt 0.236716 0.548598
vt 0.321488 0.724074
vt 0.292178 0.570951
vt 0.453716 0.001914
vt 0.488335 0.043991
vt 0.459289 0.167101
vt 0.383258 0.155127
vt 0.568697 0.078097
vt 0.552186 0.200767
vt 0.490067 0.302136
vt 0.420163 0.276497
vt 0.721820 0.077480
vt 0.737910 0.226942
vt 0.552933 0.298224
vt 0.540566 0.410712
vt 0.492273 0.382623
vt 0.744173 0.042039
vt 0.817554 0.201359
vt 0.711302 0.263218
vt 0.595290 0.411774
vt 0.769984 0.266498
vt 0.699567 0.301914
vt 0.601160 0.485475
vt 0.545896 0.479843
vt 0.734628 0.311157
vt 0.341881 0.499702
vt 0.406101 0.417765
vt 0.398030 0.577844
vt 0.344148 0.595281
vt 0.487559 0.427837
vt 0.520796 0.608486
vt 0.395712 0.651285
vt 0.338288 0.662074
vt 0.648116 0.591456
vt 0.661654 0.618019
vt 0.408382 0.729301
vt 0.344062 0.738270
vt 0.522403 0.646632
vt 0.538894 0.732793
vt 0.420748 0.867937
vt 0.361965 0.867687
vt 0.685031 0.653741
vt 0.697561 0.724200
vt 0.495321 0.869291
vt 0.643491 0.829677
vn -0.574998 -0.621810 0.531722
vn -0.141008 -0.502721 0.852871
vn -0.264567 -0.130840 0.955450
vn -0.735795 -0.149774 0.660434
vn 0.083389 -0.420222 0.903582
vn 0.053494 -0.030471 0.998103
vn 0.348820 -0.420095 0.837762
vn 0.397333 -0.021219 0.917429
vn -0.246282 0.222193 0.943385
vn -0.668179 0.314569 0.674228
vn 0.068807 0.220470 0.972964
vn 0.264913 0.304023 0.915091
vn -0.242405 0.361062 0.900485
vn -0.644755 0.503337 0.575276
vn 0.299212 0.320901 0.898607
vn 0.391471 0.307696 0.867222
vn -0.481241 0.722027 0.497076
vn -0.812503 0.567437 0.133623
vn 0.507496 0.641430 0.575340
vn 0.659352 0.525439 0.537745
vn -0.479294 0.868727 -0.124863
vn -0.821152 0.547518 -0.161040
vn 0.545801 0.827483 0.131809
vn 0.727096 0.637181 0.255599
vn 0.025845 0.697142 -0.716468
vn -0.722739 0.529540 -0.444112
vn 0.602080 0.642582 -0.473908
vn 0.700158 0.622334 -0.349971
vn 0.172143 0.680555 -0.712188
vn -0.673053 0.494818 -0.549686
vn 0.433450 0.664851 -0.608354
vn 0.454702 0.702269 -0.547782
vn 0.086598 0.515860 -0.852285
vn -0.775269 0.211615 -0.595127
vn 0.439263 0.563819 -0.699397
vn 0.558895 0.583321 -0.589384
vn 0.080224 -0.380353 -0.921356
vn -0.658573 -0.348436 -0.666989
vn 0.468587 -0.324352 -0.821719
vn 0.663739 -0.240960 -0.708088
vn 0.094957 -0.699312 -0.708482
vn -0.567906 -0.577485 -0.586510
vn 0.355533 -0.692664 -0.627545
vn 0.495907 -0.635913 -0.591347
vn -0.002275 -0.954626 -0.297800
vn -0.685748 -0.581576 -0.437630
vn 0.264210 -0.954432 -0.138757
vn 0.638066 -0.767067 -0.066935
vn 0.006714 -0.996748 0.080298
vn -0.712368 -0.637725 -0.292982
vn 0.194047 -0.953525 0.230514
vn 0.539648 -0.760380 0.361389
vn 0.142192 -0.910882 0.387396
vn -0.719253 -0.694468 0.019733
vn 0.139591 -0.873178 0.466984
vn 0.388342 -0.729618 0.562892
vn 0.983674 -0.162660 -0.076996
vn 0.866945 -0.164008 0.470647
vn 0.723424 -0.127591 0.678511
vn 0.825422 0.561363 -0.059587
vn 0.755560 0.477525 0.448442
vn 0.634951 0.465701 0.616409
vn -0.867307 -0.187854 -0.460965
vn -0.921995 -0.179555 -0.343053
vn -0.987952 -0.154631 0.006262
vn -0.881690 0.245459 -0.402954
vn -0.888452 0.371011 -0.270191
vn -0.905839 0.420536 0.051045
s 1
g pCube4
usemtl initialShadingGroup
f 1/77/1 2/78/2 6/79/3 5/80/4
f 2/78/2 3/81/5 7/82/6 6/79/3
f 3/81/5 4/85/7 8/86/8 7/82/6
f 5/80/4 6/79/3 10/83/9 9/84/10
f 6/79/3 7/82/6 11/87/11 10/83/9
f 7/82/6 8/86/8 12/92/12 11/87/11
f 9/84/10 10/83/9 14/88/13 13/89/14
f 10/83/9 11/87/11 15/93/15 14/88/13
f 11/87/11 12/92/12 16/95/16 15/93/15
f 13/1/14 14/2/13 18/3/17 17/4/18
f 14/88/13 15/93/15 19/96/19 18/97/17
f 15/93/15 16/95/16 20/98/20 19/96/19
f 17/4/18 18/3/17 22/5/21 21/6/22
f 18/43/17 19/44/19 23/45/23 22/46/21
f 19/25/19 20/26/20 24/27/24 23/28/23
f 21/6/22 22/5/21 26/9/25 25/10/26
f 22/46/21 23/45/23 27/47/27 26/48/25
f 23/28/23 24/27/24 28/31/28 27/32/27
f 25/99/26 26/100/25 30/101/29 29/102/30
f 26/100/25 27/103/27 31/104/31 30/101/29
f 27/103/27 28/107/28 32/108/32 31/104/31
f 29/102/30 30/101/29 34/105/33 33/106/34
f 30/49/29 31/50/31 35/51/35 34/52/33
f 31/50/31 32/53/32 36/54/36 35/51/35
f 33/106/34 34/105/33 38/109/37 37/110/38
f 34/105/33 35/111/35 39/112/39 38/109/37
f 35/111/35 36/115/36 40/116/40 39/112/39
f 37/110/38 38/109/37 42/113/41 41/114/42
f 38/109/37 39/112/39 43/117/43 42/113/41
f 39/112/39 40/116/40 44/118/44 43/117/43
f 41/57/42 42/58/41 46/59/45 45/60/46
f 42/58/41 43/61/43 47/62/47 46/59/45
f 43/61/43 44/65/44 48/66/48 47/62/47
f 45/60/46 46/59/45 50/63/49 49/64/50
f 46/59/45 47/62/47 51/67/51 50/63/49
f 47/62/47 48/66/48 52/70/52 51/67/51
f 49/64/50 50/63/49 54/68/53 53/69/54
f 50/63/49 51/67/51 55/71/55 54/68/53
f 51/67/51 52/70/52 56/74/56 55/71/55
f 53/69/54 54/68/53 2/72/2 1/73/1
f 54/68/53 55/71/55 3/75/5 2/72/2
f 55/71/55 56/74/56 4/76/7 3/75/5
f 48/39/48 44/42/44 40/40/40 57/38/57
f 52/37/52 48/39/48 57/38/57 58/34/58
f 56/36/56 52/37/52 58/34/58 59/33/59
f 4/85/7 56/90/56 59/91/59 8/86/8
f 57/38/57 40/40/40 36/41/36 60/35/60
f 58/34/58 57/38/57 60/35/60 61/30/61
f 59/33/59 58/34/58 61/30/61 62/29/62
f 8/86/8 59/91/59 62/94/62 12/92/12
f 60/55/60 36/54/36 32/53/32 28/56/28
f 61/30/61 60/35/60 28/31/28 24/27/24
f 62/29/62 61/30/61 24/27/24 20/26/20
f 12/92/12 62/94/62 20/98/20 16/95/16
f 41/24/42 45/22/46 63/18/63 37/23/38
f 45/22/46 49/21/50 64/15/64 63/18/63
f 49/21/50 53/16/54 65/12/65 64/15/64
f 53/16/54 1/17/1 5/13/4 65/12/65
f 37/23/38 63/18/63 66/14/66 33/19/34
f 63/18/63 64/15/64 67/11/67 66/14/66
f 64/15/64 65/12/65 68/7/68 67/11/67
f 65/12/65 5/13/4 9/8/10 68/7/68
f 33/19/34 66/14/66 25/10/26 29/20/30
f 66/14/66 67/11/67 21/6/22 25/10/26
f 67/11/67 68/7/68 17/4/18 21/6/22
f 68/7/68 9/8/10 13/1/14 17/4/18
